<?xml version="1.0" encoding="utf-8"?>
<!-- Generator: Adobe Illustrator 27.0.1, SVG Export Plug-In . SVG Version: 6.00 Build 0)  -->
<svg version="1.1" id="Layer_1" xmlns="http://www.w3.org/2000/svg" xmlns:xlink="http://www.w3.org/1999/xlink" x="0px" y="0px"
	 viewBox="0 0 700 615.89" style="enable-background:new 0 0 700 615.89;" xml:space="preserve">
<g>
	<path d="M471.33,295.77c-11.5,0-22.35,0-33.2,0c-24.06,0-48.11-0.11-72.17,0.1c-4.36,0.04-6.55-1.23-8.43-5.31
		c-23.13-50.02-46.48-99.94-69.78-149.89c-1.05-2.25-2.16-4.46-3.67-7.58c-4.96,10.56-9.58,20.34-14.15,30.13
		c-44.04,94.42-88.1,188.82-132.01,283.3c-2.01,4.33-4.19,6.11-9.25,6.07c-34.71-0.28-69.42-0.15-105.1-0.15
		c1.04-2.44,1.77-4.29,2.61-6.1c62.67-134.33,125.36-268.66,188.01-403c6.9-14.8,18.4-22.22,34.68-22.24
		c23.64-0.03,47.28-0.05,70.91,0.01c15.49,0.03,27.11,6.93,33.66,20.91c38.7,82.62,77.2,165.34,115.74,248.03
		C469.94,291.71,470.46,293.47,471.33,295.77z"/>
	<path d="M416.26,482.94c11.72-25.09,22.94-49.09,34.13-73.1c37.4-80.22,74.82-160.44,112.12-240.71c1.8-3.86,3.82-5.5,8.34-5.48
		c34.92,0.22,69.84,0.12,105.6,0.12c-0.93,2.34-1.56,4.18-2.37,5.93c-62.45,133.96-124.93,267.91-187.35,401.88
		c-7.29,15.64-19.05,23.49-36.6,23.21c-23.42-0.38-46.85-0.11-70.28-0.09c-15.11,0.01-26.34-6.84-32.65-20.29
		c-39.09-83.35-77.92-166.83-116.81-250.28c-0.42-0.89-0.63-1.88-1.15-3.51c2.46-0.15,4.45-0.37,6.45-0.37
		c32.84-0.02,65.68,0.09,98.52-0.13c4.74-0.03,6.86,1.63,8.8,5.8c23.15,50.02,46.51,99.94,69.81,149.88
		C413.77,477.88,414.79,479.92,416.26,482.94z"/>
</g>
</svg>
